<?xml version="1.0" ?><!DOCTYPE svg  PUBLIC '-//W3C//DTD SVG 1.1//EN'  'http://www.w3.org/Graphics/SVG/1.1/DTD/svg11.dtd'><svg enable-background="new 0 0 512 512" id="Layer_1" version="1.1" viewBox="0 0 512 512" xml:space="preserve" xmlns="http://www.w3.org/2000/svg" xmlns:xlink="http://www.w3.org/1999/xlink"><circle cx="256" cy="256" fill="#DD4B39" r="256"/><g><path d="M197.4,277.3h64.9c-8.5,29.1-33.9,49.7-64.9,49.7c-39.2,0-71-31.9-71-71c0-39.2,31.9-71,71-71   c16.9,0,33.3,6,46.2,17l28-32.7c-20.6-17.6-47-27.4-74.1-27.4c-62.9,0-114.1,51.2-114.1,114.1s51.2,114.1,114.1,114.1   c62.2,0,110.9-50.1,110.9-114.1v-16.5h-111V277.3z M396.9,239.7v-31.6h-32.7v31.6h-31.6v32.7h31.6v31.7h32.7v-31.7h31.7v-32.7   H396.9z" fill="#FFFFFF"/></g></svg>